<svg xmlns="http://www.w3.org/2000/svg" width="23.91" height="23.808" viewBox="0 0 23.91 23.808">
  <g id="Grupo_102" data-name="Grupo 102" transform="translate(-1520 -22)">
    <g id="Grupo_11" data-name="Grupo 11" transform="translate(1528.47 30.488)">
      <path id="Trazado_9" data-name="Trazado 9" d="M.887,1.712a3.443,3.443,0,0,0,3.5-3.379,3.442,3.442,0,0,0-3.5-3.379,3.441,3.441,0,0,0-3.5,3.379,3.442,3.442,0,0,0,3.5,3.379" transform="translate(2.614 5.046)"/>
    </g>
    <g id="Grupo_12" data-name="Grupo 12" transform="translate(1535.154 27.151)">
      <path id="Trazado_10" data-name="Trazado 10" d="M.2.87h1.97A.786.786,0,0,0,2.955.088v-1.87a.788.788,0,0,0-.786-.784H.2a.787.787,0,0,0-.785.784V.088A.785.785,0,0,0,.2.87" transform="translate(0.586 2.565)"/>
    </g>
    <g id="Grupo_13" data-name="Grupo 13" transform="translate(1525.174 32.566)">
      <path id="Trazado_11" data-name="Trazado 11" d="M3.1.378A5.328,5.328,0,0,1-2.326,5.606,5.328,5.328,0,0,1-7.746.378a5.077,5.077,0,0,1,.225-1.491h-1.6V6.223a.693.693,0,0,0,.694.688H3.713a.692.692,0,0,0,.692-.688V-1.113H2.871A5.033,5.033,0,0,1,3.1.378" transform="translate(9.123 1.113)"/>
    </g>
    <g id="Grupo_14" data-name="Grupo 14" transform="translate(1520 22)">
      <path id="Trazado_12" data-name="Trazado 12" d="M5.137,0H-11.505a3.625,3.625,0,0,0-3.634,3.618V20.19a3.625,3.625,0,0,0,3.634,3.618H5.137A3.626,3.626,0,0,0,8.771,20.19V3.618A3.626,3.626,0,0,0,5.137,0m.4,18.358A2.239,2.239,0,0,1,3.3,20.585H-9.664A2.239,2.239,0,0,1-11.9,18.358V5.451A2.24,2.24,0,0,1-9.664,3.222H3.3A2.24,2.24,0,0,1,5.535,5.451Z" transform="translate(15.139)"/>
    </g>
  </g>
</svg>
